<svg width="33" height="32" viewBox="0 0 33 32" fill="none" xmlns="http://www.w3.org/2000/svg">
<g clip-path="url(#clip0_34_116)">
<path fill-rule="evenodd" clip-rule="evenodd" d="M16.1943 0C7.35834 0 0.194336 7.164 0.194336 16C0.194336 24.836 7.35834 32 16.1943 32C25.0303 32 32.1943 24.836 32.1943 16C32.1943 7.164 25.0303 0 16.1943 0ZM23.6103 10.8813C23.3703 13.4107 22.3277 19.5507 21.7983 22.384C21.5743 23.584 21.1317 23.9853 20.705 24.024C19.7757 24.1093 19.0703 23.4093 18.1703 22.82C16.7623 21.8973 15.9663 21.3227 14.5997 20.4213C13.0197 19.38 14.0437 18.808 14.9437 17.8733C15.1797 17.628 19.273 13.904 19.353 13.5667C19.3623 13.524 19.373 13.3667 19.2783 13.284C19.1837 13.2013 19.0463 13.2293 18.9477 13.252C18.8063 13.284 16.557 14.7707 12.1983 17.712C11.5597 18.1507 10.981 18.364 10.4623 18.3533C9.89167 18.3413 8.793 18.0307 7.97567 17.764C6.97434 17.4387 6.177 17.2653 6.24634 16.7133C6.28234 16.4253 6.67834 16.1307 7.43567 15.8293C12.0997 13.7973 15.2103 12.4573 16.7663 11.8093C21.2103 9.96133 22.133 9.64 22.7357 9.62933C23.4903 9.61867 23.6717 10.2413 23.6103 10.8813Z" fill="white"/>
</g>
<defs>
<clipPath id="clip0_34_116">
<rect width="32" height="32" fill="white" transform="translate(0.194336)"/>
</clipPath>
</defs>
</svg>
