<svg width="40" height="32" viewBox="0 0 40 32" fill="none" xmlns="http://www.w3.org/2000/svg">
<path d="M35.5463 7.96596C35.5693 8.31221 35.5693 8.6601 35.5693 9.00963C35.5693 19.6876 27.4398 32 12.5789 32V31.9934C8.18927 32 3.88986 30.743 0.194336 28.3718C0.832684 28.4489 1.47431 28.4866 2.11758 28.4883C5.75732 28.4916 9.29202 27.2706 12.1523 25.0225C8.6947 24.9568 5.66214 22.7021 4.60369 19.4103C5.81475 19.6433 7.06191 19.5957 8.25163 19.2724C4.48062 18.511 1.76969 15.1978 1.76969 11.3513C1.76969 11.3169 1.76969 11.2824 1.76969 11.2496C2.89378 11.8765 4.15078 12.2227 5.43732 12.2604C1.8862 9.88921 0.790018 5.16642 2.9348 1.47417C7.03729 6.52188 13.0909 9.59054 19.5876 9.9171C18.9362 7.111 19.8272 4.17033 21.9244 2.19621C25.1785 -0.864246 30.2968 -0.706711 33.3572 2.54739C35.1673 2.19129 36.9018 1.52669 38.4886 0.586395C37.8848 2.45713 36.6228 4.04562 34.9359 5.05647C36.5391 4.86447 38.103 4.43617 39.5783 3.78306C38.4936 5.406 37.1283 6.82218 35.5463 7.96596Z" fill="white"/>
</svg>
