<svg width="29" height="32" viewBox="0 0 29 32" fill="none" xmlns="http://www.w3.org/2000/svg">
<path d="M28.4833 13.1552C25.6312 13.1552 22.9871 12.2432 20.8296 10.6938V21.8742C20.8296 27.4585 16.2868 32 10.7039 32C8.54646 32 6.54504 31.32 4.90097 30.1653C2.2902 28.3318 0.578125 25.2997 0.578125 21.8742C0.578125 16.29 5.12098 11.7472 10.7052 11.7472C11.1692 11.7472 11.6226 11.7858 12.0693 11.8458V13.1485V17.4621C11.6373 17.3274 11.1812 17.2487 10.7052 17.2487C8.15577 17.2487 6.08102 19.3235 6.08102 21.8742C6.08102 23.6503 7.08906 25.1931 8.56112 25.9677C9.20248 26.3051 9.93185 26.4984 10.7065 26.4984C13.1973 26.4984 15.2294 24.517 15.3227 22.0476L15.3267 0H20.8283C20.8283 0.477353 20.875 0.942706 20.9576 1.39606C21.3457 3.49215 22.5897 5.29089 24.3138 6.41493C25.5138 7.19763 26.9459 7.65499 28.482 7.65499L28.4833 13.1552Z" fill="white"/>
</svg>
