<svg width="46" height="32" viewBox="0 0 46 32" fill="none" xmlns="http://www.w3.org/2000/svg">
<path d="M44.9556 4.99645C44.4332 3.03004 42.8946 1.48001 40.9395 0.953868C37.3985 3.38422e-07 23.1945 0 23.1945 0C23.1945 0 8.99061 3.38422e-07 5.44767 0.953868C3.49452 1.48001 1.95584 3.02815 1.43348 4.99645C0.483398 8.5621 0.483398 16 0.483398 16C0.483398 16 0.483398 23.4379 1.43348 27.0035C1.95584 28.97 3.49452 30.52 5.44957 31.0461C8.99061 32 23.1945 32 23.1945 32C23.1945 32 37.3985 32 40.9414 31.0461C42.8946 30.52 44.4332 28.9718 44.9575 27.0035C45.9057 23.4379 45.9057 16 45.9057 16C45.9057 16 45.9057 8.5621 44.9556 4.99645ZM18.5501 22.7547V9.24533L30.4205 16L18.5501 22.7547Z" fill="white"/>
</svg>
