<svg width="50" height="50" viewBox="0 0 50 50" fill="none" xmlns="http://www.w3.org/2000/svg">
<circle cx="25" cy="25" r="25" fill="white"/>
<g clip-path="url(#clip0_117_560)">
<path d="M25 25C26.1867 25 27.3467 24.6481 28.3334 23.9888C29.3201 23.3295 30.0892 22.3925 30.5433 21.2961C30.9974 20.1997 31.1162 18.9933 30.8847 17.8295C30.6532 16.6656 30.0818 15.5965 29.2426 14.7574C28.4035 13.9182 27.3344 13.3468 26.1705 13.1153C25.0067 12.8838 23.8003 13.0026 22.7039 13.4567C21.6075 13.9109 20.6705 14.6799 20.0112 15.6666C19.3519 16.6533 19 17.8133 19 19C19.0016 20.5908 19.6342 22.116 20.7591 23.2409C21.884 24.3658 23.4092 24.9984 25 25ZM25 15C25.7911 15 26.5645 15.2346 27.2223 15.6741C27.8801 16.1136 28.3928 16.7384 28.6955 17.4693C28.9983 18.2002 29.0775 19.0044 28.9231 19.7804C28.7688 20.5563 28.3878 21.269 27.8284 21.8284C27.269 22.3878 26.5563 22.7688 25.7804 22.9231C25.0044 23.0775 24.2002 22.9983 23.4693 22.6955C22.7384 22.3928 22.1136 21.8801 21.6741 21.2223C21.2346 20.5645 21 19.7911 21 19C21 17.9391 21.4214 16.9217 22.1716 16.1716C22.9217 15.4214 23.9391 15 25 15Z" fill="black"/>
<path d="M25 27C22.6139 27.0026 20.3262 27.9517 18.639 29.639C16.9517 31.3262 16.0026 33.6139 16 36C16 36.2652 16.1054 36.5196 16.2929 36.7071C16.4804 36.8946 16.7348 37 17 37C17.2652 37 17.5196 36.8946 17.7071 36.7071C17.8946 36.5196 18 36.2652 18 36C18 34.1435 18.7375 32.363 20.0503 31.0503C21.363 29.7375 23.1435 29 25 29C26.8565 29 28.637 29.7375 29.9497 31.0503C31.2625 32.363 32 34.1435 32 36C32 36.2652 32.1054 36.5196 32.2929 36.7071C32.4804 36.8946 32.7348 37 33 37C33.2652 37 33.5196 36.8946 33.7071 36.7071C33.8946 36.5196 34 36.2652 34 36C33.9974 33.6139 33.0483 31.3262 31.361 29.639C29.6738 27.9517 27.3861 27.0026 25 27Z" fill="black"/>
</g>
<defs>
<clipPath id="clip0_117_560">
<rect width="24" height="24" fill="white" transform="translate(13 13)"/>
</clipPath>
</defs>
</svg>
