<svg width="244" height="54" viewBox="0 0 244 54" fill="none" xmlns="http://www.w3.org/2000/svg">
<path d="M35.0861 26.2248C35.0861 27.937 34.5583 29.3251 33.5027 30.3891C32.4471 31.453 30.66 31.9933 28.1415 32.0099H25.6729V36.8724H28.1166V39.2163H20.4862V36.8724H22.8302V22.7712H20.4862V20.4272H27.4807C29.3675 20.4272 30.8637 20.6309 31.9691 21.0382C33.0829 21.4454 33.8809 22.0688 34.363 22.9083C34.8451 23.7395 35.0861 24.845 35.0861 26.2248ZM32.206 26.1625C32.206 24.9905 31.8611 24.1343 31.1712 23.5941C30.4813 23.0455 29.301 22.7712 27.6303 22.7712H25.6729V29.7407H27.4308C28.5862 29.7407 29.5088 29.6368 30.1987 29.429C30.8886 29.2129 31.3956 28.8472 31.7198 28.3319C32.044 27.8082 32.206 27.0851 32.206 26.1625ZM50.7208 25.352C50.7208 26.5573 50.38 27.5713 49.6985 28.3942C49.0169 29.2088 48.0652 29.7698 46.8433 30.0774L50.1598 36.8724H52.4539V39.2163H48.2397L44.0879 30.4639H41.4572V36.8724H43.851V39.2163H36.0711V36.8724H38.6145V22.7712H36.0711V20.4272H43.876C46.2947 20.4272 48.0402 20.8221 49.1125 21.6117C50.1847 22.4013 50.7208 23.6481 50.7208 25.352ZM47.7909 25.3022C47.7909 24.4294 47.5166 23.7894 46.968 23.3821C46.4194 22.9748 45.5508 22.7712 44.3622 22.7712H41.4572V28.1074H44.1877C45.4095 28.1074 46.3155 27.8955 46.9057 27.4716C47.4958 27.0477 47.7909 26.3245 47.7909 25.3022ZM58.4384 22.7712V36.8724H60.4832V39.2163H53.5635V36.8724H55.5958V22.7712H53.5635V20.4272H60.4832V22.7712H58.4384ZM78.4743 20.4272H84.9825V22.7712H82.7134V36.8724H84.9825V39.2163H77.9132V36.8724H80.1325V22.7712L73.6742 39.4158H73.1131L66.7046 22.7712V36.8724H68.7743V39.2163H62.104V36.8724H64.3856V22.7712H62.104V20.4272H68.5499L73.4996 33.2941L78.4743 20.4272ZM99.4951 25.9131V22.7712H91.4533V28.3693H98.4478V30.7132H91.4533V36.8724H99.4951V33.4437H101.814V39.2163H86.1919V36.8724H88.6107V22.7712H86.1919V20.4272H101.814V25.9131H99.4951ZM126.825 20.4272H133.333V22.7712H131.064V36.8724H133.333V39.2163H126.264V36.8724H128.483V22.7712L122.025 39.4158H121.463L115.055 22.7712V36.8724H117.125V39.2163H110.454V36.8724H112.736V22.7712H110.454V20.4272H116.9L121.85 33.2941L126.825 20.4272ZM147.122 22.6964L152.209 36.8724H154.304V39.2163H146.898V36.8724H149.354L147.895 32.6083H141.075L139.617 36.8724H141.998V39.2163H134.542V36.8724H136.811L141.873 22.6964H139.617V20.4272H149.379V22.6964H147.122ZM144.554 22.6964H144.467L141.811 30.4015H147.147L144.554 22.6964ZM169.664 25.352C169.664 26.5573 169.323 27.5713 168.642 28.3942C167.96 29.2088 167.009 29.7698 165.787 30.0774L169.103 36.8724H171.397V39.2163H167.183L163.031 30.4639H160.401V36.8724H162.794V39.2163H155.014V36.8724H157.558V22.7712H155.014V20.4272H162.819C165.238 20.4272 166.984 20.8221 168.056 21.6117C169.128 22.4013 169.664 23.6481 169.664 25.352ZM166.734 25.3022C166.734 24.4294 166.46 23.7894 165.911 23.3821C165.363 22.9748 164.494 22.7712 163.306 22.7712H160.401V28.1074H163.131C164.353 28.1074 165.259 27.8955 165.849 27.4716C166.439 27.0477 166.734 26.3245 166.734 25.3022ZM177.357 22.7712V36.8724H179.526V39.2163H172.17V36.8724H174.514V22.7712H172.17V20.4272H179.776V22.7712H177.357ZM186.695 22.7712L180.873 29.3044L186.857 36.8724H188.865V39.2163H181.234V36.8724H183.304L177.656 29.3916L183.479 22.7712H181.309V20.4272H188.69V22.7712H186.695ZM202.879 25.9131V22.7712H194.837V28.3693H201.831V30.7132H194.837V36.8724H202.879V33.4437H205.198V39.2163H189.575V36.8724H191.994V22.7712H189.575V20.4272H205.198V25.9131H202.879ZM219.86 27.297V22.7712H215.982V36.8724H218.426V39.2163H210.746V36.8724H213.14V22.7712H209.287V27.297H206.968V20.4272H222.179V27.297H219.86Z" fill="white"/>
<path d="M242 2H2V52.9148H242V2Z" stroke="white" stroke-width="2.12785" stroke-miterlimit="10"/>
</svg>
