<svg width="25" height="23" viewBox="0 0 25 23" fill="none" xmlns="http://www.w3.org/2000/svg">
<path d="M18.9771 16.0925C20.5737 14.0552 21.3027 11.516 21.0175 8.98613C20.7322 6.45624 19.4539 4.12344 17.4398 2.45733C15.4257 0.791216 12.8254 -0.0845083 10.1623 0.00643543C7.49924 0.0973792 4.9711 1.14824 3.08681 2.94748C1.20252 4.74672 0.101982 7.16075 0.00673964 9.70364C-0.0885031 12.2465 0.828617 14.7295 2.57349 16.6526C4.31836 18.5758 6.76142 19.7964 9.4109 20.0688C12.0604 20.3412 14.7196 19.6451 16.8531 18.1206L21.9531 22.9904L24.0771 20.9661L18.9771 16.0925ZM10.5771 17.2612C9.09378 17.2612 7.64374 16.8412 6.41037 16.0543C5.177 15.2674 4.21571 14.1489 3.64805 12.8403C3.08039 11.5317 2.93187 10.0918 3.22125 8.70259C3.51064 7.3134 4.22495 6.03735 5.27384 5.0358C6.32274 4.03425 7.65911 3.35219 9.11397 3.07586C10.5688 2.79953 12.0768 2.94135 13.4473 3.48339C14.8177 4.02542 15.9891 4.94333 16.8132 6.12103C17.6373 7.29872 18.0771 8.68332 18.0771 10.0997C18.0753 11.9985 17.2845 13.819 15.8784 15.1617C14.4723 16.5044 12.5657 17.2594 10.5771 17.2612Z" fill="white"/>
</svg>
