<svg width="19" height="22" viewBox="0 0 19 22" fill="none" xmlns="http://www.w3.org/2000/svg">
<path d="M9.21629 21.9999C8.44447 22.0039 7.68294 21.8229 6.99545 21.472C6.30797 21.1212 5.71455 20.6107 5.26488 19.9834C1.77176 15.1649 0 11.5426 0 9.21629C0 6.77198 0.970999 4.42778 2.69939 2.69939C4.42778 0.970999 6.77197 0 9.21629 0C11.6606 0 14.0048 0.970999 15.7332 2.69939C17.4616 4.42778 18.4326 6.77198 18.4326 9.21629C18.4326 11.5426 16.6608 15.1649 13.1677 19.9834C12.718 20.6107 12.1246 21.1212 11.4371 21.472C10.7496 21.8229 9.9881 22.0039 9.21629 21.9999ZM9.21629 2.00091C7.30283 2.00309 5.46838 2.76418 4.11536 4.11719C2.76234 5.47021 2.00126 7.30467 1.99908 9.21812C1.99908 11.0605 3.73418 14.4674 6.88357 18.8111C7.15093 19.1794 7.50169 19.4791 7.90714 19.6858C8.31258 19.8925 8.7612 20.0002 9.21629 20.0002C9.67137 20.0002 10.12 19.8925 10.5254 19.6858C10.9309 19.4791 11.2816 19.1794 11.549 18.8111C14.6984 14.4674 16.4335 11.0605 16.4335 9.21812C16.4313 7.30467 15.6702 5.47021 14.3172 4.11719C12.9642 2.76418 11.1297 2.00309 9.21629 2.00091Z" fill="#C3220E"/>
<path d="M9.21616 5.50134C8.49102 5.50134 7.78217 5.71637 7.17924 6.11923C6.57631 6.5221 6.10639 7.0947 5.82889 7.76464C5.55139 8.43458 5.47879 9.17176 5.62025 9.88296C5.76172 10.5942 6.11091 11.2474 6.62366 11.7602C7.1364 12.2729 7.78968 12.6221 8.50089 12.7636C9.21209 12.9051 9.94927 12.8325 10.6192 12.555C11.2891 12.2775 11.8618 11.8075 12.2646 11.2046C12.6675 10.6017 12.8825 9.89283 12.8825 9.16769C12.8825 8.19532 12.4962 7.26277 11.8087 6.57519C11.1211 5.88762 10.1885 5.50134 9.21616 5.50134ZM9.21616 11.0009C8.85359 11.0009 8.49916 10.8934 8.1977 10.6919C7.89623 10.4905 7.66127 10.2042 7.52252 9.86922C7.38377 9.53425 7.34747 9.16566 7.41821 8.81006C7.48894 8.45446 7.66353 8.12782 7.91991 7.87144C8.17628 7.61507 8.50292 7.44048 8.85852 7.36974C9.21412 7.29901 9.58271 7.33531 9.91768 7.47406C10.2527 7.61281 10.539 7.84777 10.7404 8.14924C10.9418 8.4507 11.0493 8.80513 11.0493 9.16769C11.0493 9.65388 10.8562 10.1202 10.5124 10.4639C10.1686 10.8077 9.70234 11.0009 9.21616 11.0009Z" fill="#C3220E"/>
</svg>
